# xmcd
#
# Track frame offsets:
# 150
# 19852
# 39700
# 60395
# 77020
# 92155
# 105785
# 128615
# 148530
# 164367
# 183687
# 197445
#
# Disc length: 2935 seconds
#
#
# Revision: 0
# Processed by: cddbd v1.5.2PL0 Copyright (c) Steve Scherf et al.
# Submitted via: FreeRIP 2.951 
#
DISCID=930b750c
DTITLE=The Lost Gonzo Band - Rendezvous
DYEAR=1991
DGENRE=Country
TTITLE0=Hurricane
TTITLE1=Silent Dancer
TTITLE2=Fool for a Tender Touch
TTITLE3=Prairie Madness
TTITLE4=Corona con Lima
TTITLE5=Baby, Baby, Baby
TTITLE6=Geronimo's Cadillac
TTITLE7=Rendezvous
TTITLE8=Everywhere I Go I See Your Face
TTITLE9=Comanche Highway
TTITLE10=Friends
TTITLE11=Terlingua Sky
EXTD=
EXTT0=
EXTT1=
EXTT2=
EXTT3=
EXTT4=
EXTT5=
EXTT6=
EXTT7=
EXTT8=
EXTT9=
EXTT10=
EXTT11=
PLAYORDER=
